<?xml version="1.0" encoding="utf-8"?>
<!-- Generator: Adobe Illustrator 16.0.0, SVG Export Plug-In . SVG Version: 6.00 Build 0)  -->
<!DOCTYPE svg PUBLIC "-//W3C//DTD SVG 1.1//EN" "http://www.w3.org/Graphics/SVG/1.1/DTD/svg11.dtd">
<svg version="1.1" id="Layer_1" xmlns="http://www.w3.org/2000/svg" xmlns:xlink="http://www.w3.org/1999/xlink" x="0px" y="0px"
	 width="1024px" height="768px" viewBox="0 0 1024 768" enable-background="new 0 0 1024 768" xml:space="preserve">
<g>
	<path fill="#191919" d="M782.53,448.892c-7.719,13.643-18.29,24.169-31.684,31.684c-13.396,7.506-28.102,11.248-44.186,11.248
		c-16.307,0-31.094-3.742-44.372-11.248c-13.306-7.515-23.795-18.041-31.513-31.684c-7.71-13.617-11.593-28.954-11.593-46.133
		c0-17.138,3.883-32.499,11.593-46.115c7.718-13.622,18.207-24.232,31.513-31.83c13.278-7.598,28.065-11.434,44.372-11.434
		c16.084,0,30.789,3.835,44.186,11.434c13.394,7.598,23.965,18.208,31.684,31.83c7.707,13.617,11.586,28.978,11.586,46.115
		C794.116,419.938,790.237,435.274,782.53,448.892z M748.934,374.631c-4.395-8.234-10.285-14.616-17.669-19.125
		c-7.422-4.485-15.613-6.755-24.604-6.755c-9.006,0-17.204,2.27-24.598,6.755c-7.421,4.51-13.287,10.891-17.686,19.125
		c-4.418,8.243-6.591,17.643-6.591,28.127c0,10.532,2.173,19.846,6.591,27.982c4.398,8.148,10.265,14.463,17.686,18.957
		c7.394,4.505,15.592,6.754,24.598,6.754c8.99,0,17.182-2.249,24.604-6.754c7.384-4.494,13.274-10.809,17.669-18.957
		c4.368-8.137,6.575-17.45,6.575-27.982C755.509,392.274,753.302,382.874,748.934,374.631z"/>
	<g>
		<rect x="194.619" y="460.407" fill="#191919" width="38.583" height="28.195"/>
		<g>
			<path fill="#191919" d="M229.781,340.26l3.42,128.731c0,5.588-38.369,5.923-38.567,0.334
				c-5.355,6.205-12.602,11.521-21.71,15.905s-18.689,6.593-28.769,6.593c-14.797,0-28.179-3.789-40.187-11.397
				c-12-7.623-21.483-18.185-28.454-31.696c-6.977-13.498-10.45-28.792-10.45-45.971c0-17.138,3.43-32.499,10.292-46.115
				c6.85-13.622,16.241-24.232,28.124-31.83c11.882-7.598,25.038-11.434,39.396-11.434c10.273,0,19.921,1.909,28.934,5.639
				c9.007,3.769,16.597,8.537,22.823,14.305v-0.304C196.287,313.38,229.781,331.876,229.781,340.26z M183.075,441.184
				c8.759-10.164,13.162-22.975,13.162-38.425c0-15.43-4.403-28.272-13.162-38.561c-8.809-10.306-20.187-15.447-34.099-15.447
				c-13.712,0-24.976,5.141-33.763,15.447c-8.789,10.288-13.179,23.131-13.179,38.561c0,15.45,4.332,28.261,13.035,38.425
				c8.664,10.197,19.975,15.269,33.907,15.269C162.888,456.452,174.266,451.381,183.075,441.184z"/>
			<path fill="#191919" d="M194.619,309.984c0,0,29.368,0.358,38.196,6.67c2.03,11.312,0.386,145.373,0.386,145.373l-38.583-117.99
				V309.984z"/>
		</g>
	</g>
	<g>
		<rect x="264.782" y="431.531" fill="#191919" width="38.224" height="60.292"/>
		<path fill="#191919" d="M410.751,469.325c0,5.363-25.401,12.323-29.249,8.034l-62.38-56.591l-17.844,16.565l-0.775,31.657
			c0,5.588,1.019,10.254-2.597,13.984c-3.65,3.753-8.234,5.627-13.846,5.627c-5.536,0-10.178-1.874-13.813-5.627
			c-3.666-3.73-5.465-8.396-5.465-13.984v-159.29c0-5.54,34.395-10.154,34.395-4.614l2.789,87.474l75.161-64.91
			c4.058-4.049-28.765,66.114-28.765,66.114l56.247,61.094C408.693,459.161,410.751,463.963,410.751,469.325z"/>
		<polygon fill="#191919" points="441.563,491.823 391.326,491.382 319.122,420.769 402.024,452.046 		"/>
		<path fill="#191919" d="M348.362,393.765l-46.329-1.152c0,0,54.922-54.725,75.317-75.306c13.723-7.687,54.998-3.926,54.998-3.926
			L348.362,393.765z"/>
		<path fill="#191919" d="M303.006,268.682c0,0-30.984,5.02-38.224,14.234c0,11.378,0,34.752,0,34.752l38.224,78.256V268.682z"/>
	</g>
	<g>
		<path fill="#191919" d="M472.73,292.181c-3.034-2.36-4.521-6.534-4.521-12.543v-6.122c0-5.98,1.605-10.169,4.843-12.524
			c3.171-2.36,8.321-3.54,15.419-3.54c7.468,0,12.737,1.18,15.747,3.54c2.994,2.354,4.523,6.544,4.523,12.524v6.122
			c0,6.22-1.585,10.442-4.669,12.705c-3.155,2.237-8.428,3.363-15.935,3.363C480.828,295.707,475.708,294.531,472.73,292.181z"/>
		<g>
			<polygon fill="#191919" points="508.589,491.97 468.363,491.97 468.363,334.405 508.589,334.823 			"/>
			<path fill="#191919" d="M468.363,336.047c0-11.119,8.987-20.132,20.108-20.132c11.119,0,20.117,9.013,20.117,20.132
				c0,11.125-8.999,20.124-20.117,20.124C477.35,356.171,468.363,347.172,468.363,336.047z"/>
		</g>
	</g>
	<g>
		<g>
			<path fill="#191919" d="M948.765,324.813c11.997,7.598,21.493,18.169,28.494,31.666c6.944,13.514,10.422,28.83,10.422,45.969
				c0,17.146-3.43,32.525-10.276,46.128c-6.861,13.604-16.25,24.227-28.163,31.85c-11.865,7.608-25,11.397-39.367,11.397
				c-10.286,0-19.984-2.104-29.085-6.287c-9.124-4.146-16.682-9.258-22.661-15.246v1.924c0,5.561-1.834,10.246-5.474,13.991
				c-3.662,3.745-8.263,5.618-13.817,5.618c-5.603,0-10.196-1.83-13.827-5.457c-3.643-3.647-5.473-8.385-5.473-14.152l2.311-199.587
				c0-5.548,36.28-7.87,36.28-2.325v67.217c5.148-6.449,12.334-12.064,21.528-16.875c9.214-4.843,18.861-7.264,28.93-7.264
				C923.368,313.38,936.766,317.215,948.765,324.813z M937.531,441.002c8.786-10.261,13.201-23.127,13.201-38.554
				c0-15.438-4.366-28.233-13.04-38.42c-8.697-10.199-19.994-15.277-33.93-15.277c-13.909,0-25.287,5.079-34.076,15.277
				c-8.789,10.187-13.153,22.981-13.153,38.42c0,15.427,4.364,28.293,13.153,38.554c8.789,10.316,20.167,15.45,34.076,15.45
				C917.497,456.452,928.731,451.318,937.531,441.002z"/>
			<rect x="819.537" y="462.926" fill="#191919" width="38.526" height="28.897"/>
		</g>
		<path fill="#191919" d="M820.788,261.146c9.207-9.63,37.275-10.441,37.275-10.441v32.211l-38.526,198.002
			C819.537,480.918,815.084,266.829,820.788,261.146z"/>
	</g>
	<g>
		<g>
			<path fill="#191919" d="M555.225,292.181c-3.049-2.36-4.514-6.534-4.514-12.543v-6.122c0-5.98,1.59-10.169,4.81-12.524
				c3.2-2.36,8.34-3.54,15.438-3.54c7.508,0,12.752,1.18,15.753,3.54c2.979,2.354,4.51,6.544,4.51,12.524v6.122
				c0,6.22-1.588,10.442-4.674,12.705c-3.132,2.237-8.424,3.363-15.914,3.363C563.325,295.707,558.203,294.531,555.225,292.181z"/>
			<g>
				<polygon fill="#191919" points="591.095,491.97 550.845,491.97 550.845,334.405 591.095,334.823 				"/>
				<path fill="#191919" d="M550.845,336.047c0-11.119,8.998-20.132,20.113-20.132c11.119,0,20.137,9.013,20.137,20.132
					c0,11.125-9.018,20.124-20.137,20.124C559.843,356.171,550.845,347.172,550.845,336.047z"/>
			</g>
		</g>
		<path fill="#191919" d="M550.845,489.711c0,0,0.395,23.854-35.401,22.812c0,0,1.046,26.595,40.355,22.965
			c21.778-4.626,35.209-18.408,35.296-45.366L550.845,489.711z"/>
		<path fill="#191919" d="M536.087,514.08c6.995-0.707-3.97,16.042-9.702,16.042c-5.765-2.645-11.438-9.46-10.995-16.042
			c0-5.712,4.668-10.352,10.365-10.352C531.468,503.729,529.107,514.786,536.087,514.08z"/>
	</g>
</g>
</svg>
