<?xml version="1.0" encoding="utf-8"?>
<!-- Generator: Adobe Illustrator 16.0.0, SVG Export Plug-In . SVG Version: 6.00 Build 0)  -->
<!DOCTYPE svg PUBLIC "-//W3C//DTD SVG 1.1//EN" "http://www.w3.org/Graphics/SVG/1.1/DTD/svg11.dtd">
<svg version="1.1" id="Layer_1" xmlns="http://www.w3.org/2000/svg" xmlns:xlink="http://www.w3.org/1999/xlink" x="0px" y="0px"
	 width="1024px" height="1024px" viewBox="0 0 1024 1024" enable-background="new 0 0 1024 1024" xml:space="preserve">
<g>
	<path fill="#7FB2F0" d="M425.674,604.233l-96.95,163.912c-27.505,46.44-87.8,61.679-134.709,33.894
		c-46.955-27.741-62.688-87.966-35.189-134.428l157.439-266.173C321.876,483.284,363.333,555.631,425.674,604.233z"/>
	<path fill="#7FB2F0" d="M158.825,667.611c-27.499,46.485-11.743,106.687,35.189,134.449
		c46.854,27.741,107.221,12.525,134.709-33.96c27.52-46.529,11.781-106.731-35.112-134.471
		C246.689,605.909,186.351,621.081,158.825,667.611z"/>
</g>
<g>
	<path fill="#FFC83E" d="M904.802,726.952c0,2.293-0.067,4.609-0.221,6.814c-0.21,2.314-0.441,4.631-0.782,6.925
		c-0.529,3.593-1.203,7.188-2.14,10.694c-0.343,1.434-0.762,2.89-1.191,4.278c-0.672,2.294-1.465,4.607-2.304,6.814
		c-0.617,1.544-1.214,2.999-1.896,4.453c-0.584,1.368-1.191,2.647-1.875,4.014c-1.103,2.295-2.382,4.609-3.759,6.814
		c-0.674,1.212-1.445,2.426-2.217,3.595c-4.08,6.263-8.975,12.062-14.51,17.178c-1.014,1.104-2.052,2.052-3.154,2.999
		c-4.63,3.992-9.659,7.587-15.127,10.829c-15.812,9.238-33.056,13.67-50.135,13.584c-1.886,0-3.761-0.067-5.656-0.155
		c-1.368-0.089-2.802-0.177-4.18-0.354c-1.378-0.176-2.724-0.33-3.98-0.529c-0.793-0.088-1.565-0.154-2.336-0.33
		c-1.214-0.155-2.317-0.42-3.507-0.662c-3.242-0.595-6.484-1.477-9.658-2.491c-0.949-0.244-1.875-0.509-2.802-0.927
		c-1.135-0.353-2.249-0.794-3.353-1.212c-1.014-0.354-2.139-0.773-3.152-1.279c-0.353-0.089-0.685-0.265-0.915-0.441
		c-2.084-0.837-4.025-1.765-5.899-2.8c-2.326-1.104-4.477-2.403-6.671-3.75c-1.533-0.926-3.076-1.985-4.597-3.064
		c-2.317-1.654-4.631-3.44-6.859-5.315c-1.608-1.39-3.175-2.823-4.696-4.343c-1.104-0.949-2.139-2.073-3.066-3.088
		c-1.146-1.104-2.139-2.316-3.086-3.507c-0.585-0.595-1.016-1.189-1.544-1.786c-1.103-1.366-2.227-2.822-3.154-4.278
		c-1.962-2.558-3.683-5.204-5.292-7.96L508.231,413.269c36.749-56.706,120.889-56.782,191.973-62.759l191.389,327.575
		C900.557,693.478,904.802,710.28,904.802,726.952z"/>
	<path fill="#FFC83E" d="M904.802,726.952c0,2.293-0.067,4.609-0.221,6.814c-0.21,2.314-0.441,4.631-0.782,6.925
		c-0.529,3.593-1.203,7.188-2.14,10.694c-0.343,1.434-0.762,2.89-1.191,4.278c-0.672,2.294-1.465,4.607-2.304,6.814
		c-0.617,1.544-1.214,2.999-1.896,4.453c-0.584,1.368-1.191,2.647-1.875,4.014c-1.103,2.295-2.382,4.609-3.759,6.814
		c-0.674,1.212-1.445,2.426-2.217,3.595c-4.08,6.263-8.975,12.062-14.51,17.178c-1.014,1.104-2.052,2.052-3.154,2.999
		c-4.63,3.992-9.659,7.587-15.127,10.829c-15.812,9.238-33.056,13.67-50.135,13.584c-1.886,0-3.761-0.067-5.656-0.155
		c-1.368-0.089-2.802-0.177-4.18-0.354c-1.378-0.176-2.724-0.33-3.98-0.529c-0.793-0.088-1.565-0.154-2.336-0.33
		c-1.214-0.155-2.317-0.42-3.507-0.662c-3.242-0.595-6.484-1.477-9.658-2.491c-0.949-0.244-1.875-0.509-2.802-0.927
		c-1.135-0.353-2.249-0.794-3.353-1.212c-1.014-0.354-2.139-0.773-3.152-1.279c-0.353-0.089-0.685-0.265-0.915-0.441
		c-2.084-0.837-4.025-1.765-5.899-2.8c-2.326-1.104-4.477-2.403-6.671-3.75c-1.533-0.926-3.076-1.985-4.597-3.064
		c-2.317-1.654-4.631-3.44-6.859-5.315c-1.608-1.39-3.175-2.823-4.696-4.343c-1.104-0.949-2.139-2.073-3.066-3.088
		c-1.146-1.104-2.139-2.316-3.086-3.507c-0.585-0.595-1.016-1.189-1.544-1.786c-1.103-1.366-2.227-2.822-3.154-4.278
		c-1.962-2.558-3.683-5.204-5.292-7.96c-27.244-46.618-11.181-106.753,35.867-134.274c47.069-27.478,107.294-11.93,134.639,34.688
		C900.557,693.478,904.802,710.28,904.802,726.952z"/>
</g>
<g>
	<g>
		<path fill="#4E7AC7" d="M622.053,243.25c0.418,17.597-3.837,35.537-13.497,51.755L523.31,439.203l-97.636,165.031
			c-62.341-48.603-103.798-120.949-109.41-202.795l122.405-206.879c0.926-1.543,2.013-2.911,2.987-4.421
			c0.265-0.385,0.54-0.782,0.816-1.169c1.444-2.106,2.911-4.135,4.51-6.098c1.968-2.426,4.007-4.763,6.214-7.012
			c1.525-1.532,3.147-2.988,4.772-4.542c1.616-1.434,3.314-2.823,5.046-4.19c1.354-1.103,2.812-2.128,4.262-3.132
			c1.02-0.706,2.039-1.456,3.152-2.161c1.539-0.926,3.088-1.875,4.604-2.735c29.582-16.473,66.994-17.145,98.406,1.478
			c29.219,17.333,46.299,47.136,48.526,78.406C622.053,240.449,622.053,241.794,622.053,243.25z"/>
		<path fill="#4E7AC7" d="M438.646,194.537c-27.542,46.541-11.781,106.731,35.124,134.495
			c46.894,27.741,107.266,12.548,134.785-33.993c27.511-46.529,11.755-106.73-35.128-134.45
			C526.501,132.836,466.167,148.008,438.646,194.537z"/>
	</g>
	<g>
		<path fill="#4E7AC7" d="M707.294,362.748c-124.339-35.922-183.984,76.455-183.984,76.455l-84.905-145.387
			c-8.021-13.651-12.295-28.612-13.138-43.476c-0.276-4.002-0.276-7.938,0-11.875c1.174-17.686,7.072-34.842,17.239-49.528
			c1.024-1.555,2.063-2.9,3.158-4.367c1.021-1.289,2.058-2.646,3.171-3.925c1.444-1.632,2.898-3.153,4.361-4.786
			c1.525-1.532,3.147-2.988,4.772-4.542c1.616-1.434,3.314-2.823,5.046-4.19c1.278-1.015,2.469-1.952,3.847-2.801
			c1.604-1.19,3.325-2.315,5.028-3.34c0.772-0.497,1.532-1.025,2.311-1.444c0.26-0.177,0.601-0.353,0.832-0.441
			c46.905-26.881,106.709-11.247,133.788,35.118L707.294,362.748z"/>
		<path fill="#4E7AC7" d="M608.82,194.272c27.246,46.662,11.182,106.798-35.899,134.274
			c-47.048,27.487-107.283,11.953-134.562-34.71c-27.255-46.684-11.191-106.797,35.856-134.273
			C521.286,132.064,581.542,147.588,608.82,194.272z"/>
	</g>
</g>
</svg>
