<?xml version="1.0" encoding="UTF-8"?>
<!DOCTYPE svg PUBLIC "-//W3C//DTD SVG 1.1//EN" "http://www.w3.org/Graphics/SVG/1.1/DTD/svg11.dtd">
<!-- Creator: CorelDRAW X8 -->
<svg xmlns="http://www.w3.org/2000/svg" xml:space="preserve" width="297mm" height="210mm" version="1.1" style="shape-rendering:geometricPrecision; text-rendering:geometricPrecision; image-rendering:optimizeQuality; fill-rule:evenodd; clip-rule:evenodd"
viewBox="0 0 29700 21000"
 xmlns:xlink="http://www.w3.org/1999/xlink"
 enable-background="new 0 0 1024 1024">
 <defs>
  <style type="text/css">
   <![CDATA[
    .fil0 {fill:#191919}
    .fil3 {fill:#4E7AC7}
    .fil1 {fill:#7FB2F0}
    .fil2 {fill:#FFC83E}
   ]]>
  </style>
 </defs>
 <g id="Camada_x0020_1">
  <metadata id="CorelCorpID_0Corel-Layer"/>
  <g id="_2124133895248">
   <g>
    <path class="fil0" d="M25489 11535c-135,238 -319,421 -552,552 -234,131 -490,196 -770,196 -284,0 -542,-65 -773,-196 -232,-131 -415,-314 -549,-552 -135,-237 -202,-504 -202,-804 0,-298 67,-566 202,-803 134,-237 317,-422 549,-555 231,-132 489,-199 773,-199 280,0 536,67 770,199 233,133 417,318 552,555 134,237 202,505 202,803 0,300 -68,567 -202,804zm-586 -1294c-76,-143 -179,-254 -307,-333 -130,-78 -273,-118 -429,-118 -157,0 -300,40 -429,118 -129,79 -231,190 -308,333 -77,144 -115,308 -115,490 0,184 38,346 115,488 77,142 179,252 308,330 129,79 272,118 429,118 156,0 299,-39 429,-118 128,-78 231,-188 307,-330 76,-142 115,-304 115,-488 0,-182 -39,-346 -115,-490z"/>
    <g>
     <rect class="fil0" x="15245" y="11736" width="672" height="491"/>
     <g>
      <path class="fil0" d="M15858 9642l60 2243c0,98 -669,104 -672,6 -94,108 -220,201 -379,277 -158,77 -325,115 -501,115 -258,0 -491,-66 -700,-198 -209,-133 -374,-317 -496,-553 -121,-235 -182,-501 -182,-801 0,-298 60,-566 179,-803 120,-237 283,-422 490,-555 207,-132 437,-199 687,-199 179,0 347,33 504,98 157,66 289,149 398,250l0 -6c28,-342 612,-20 612,126zm-814 1759c153,-177 229,-400 229,-670 0,-268 -76,-492 -229,-672 -153,-179 -352,-269 -594,-269 -239,0 -435,90 -588,269 -153,180 -230,404 -230,672 0,270 76,493 227,670 151,178 348,266 591,266 242,0 441,-88 594,-266z"/>
      <path class="fil0" d="M15245 9115c0,0 512,6 666,116 35,197 7,2533 7,2533l-673 -2056 0 -593 0 0z"/>
     </g>
    </g>
    <g>
     <rect class="fil0" x="16468" y="11233" width="666" height="1050"/>
     <path class="fil0" d="M19011 11891c0,94 -443,215 -510,140l-1086 -986 -311 289 -14 551c0,98 18,179 -45,244 -64,65 -144,98 -241,98 -97,0 -178,-33 -241,-98 -64,-65 -95,-146 -95,-244l0 -2775c0,-97 599,-177 599,-80l49 1524 1309 -1131c71,-71 -501,1152 -501,1152l980 1064c71,75 107,159 107,252z"/>
     <polygon class="fil0" points="19548,12283 18673,12275 17415,11045 18859,11590 "/>
     <path class="fil0" d="M17924 10575l-807 -20c0,0 957,-954 1312,-1313 239,-133 958,-68 958,-68l-1463 1401z"/>
     <path class="fil0" d="M17134 8395c0,0 -540,88 -666,248 0,199 0,606 0,606l666 1363 0 -2217z"/>
    </g>
    <g>
     <path class="fil0" d="M20091 8805c-53,-41 -79,-114 -79,-219l0 -107c0,-104 28,-177 85,-218 55,-41 145,-61 268,-61 130,0 222,20 275,61 52,41 78,114 78,218l0 107c0,109 -27,182 -81,222 -55,38 -147,58 -278,58 -127,0 -216,-20 -268,-61z"/>
     <g>
      <polygon class="fil0" points="20716,12286 20015,12286 20015,9540 20716,9548 "/>
      <path class="fil0" d="M20015 9569c0,-194 156,-351 350,-351 194,0 351,157 351,351 0,194 -157,351 -351,351 -194,0 -350,-157 -350,-351z"/>
     </g>
    </g>
    <g>
     <g>
      <path class="fil0" d="M28385 9373c209,133 375,317 497,552 121,235 181,502 181,801 0,299 -60,567 -179,804 -119,237 -283,422 -491,555 -206,132 -435,198 -685,198 -180,0 -349,-37 -507,-109 -159,-73 -291,-162 -395,-266l0 34c0,96 -32,178 -95,243 -64,66 -144,98 -241,98 -98,0 -178,-32 -241,-95 -64,-63 -95,-146 -95,-246l40 -3478c0,-97 632,-137 632,-41l0 1172c90,-113 215,-211 375,-294 161,-85 329,-127 504,-127 258,0 491,67 700,199zm-196 2025c153,-179 230,-403 230,-672 0,-269 -76,-492 -227,-669 -151,-178 -348,-267 -591,-267 -242,0 -441,89 -594,267 -153,177 -229,400 -229,669 0,269 76,493 229,672 153,179 352,269 594,269 239,0 435,-90 588,-269z"/>
      <rect class="fil0" x="26134" y="11780" width="671" height="503"/>
     </g>
     <path class="fil0" d="M26155 8264c161,-168 650,-182 650,-182l0 561 -671 3450c0,0 -78,-3730 21,-3829z"/>
    </g>
    <g>
     <g>
      <path class="fil0" d="M21528 8805c-53,-41 -78,-114 -78,-219l0 -107c0,-104 27,-177 83,-218 56,-41 146,-61 269,-61 131,0 223,20 275,61 52,41 78,114 78,218l0 107c0,109 -27,182 -81,222 -55,38 -147,58 -277,58 -128,0 -217,-20 -269,-61z"/>
      <g>
       <polygon class="fil0" points="22153,12286 21452,12286 21452,9540 22153,9548 "/>
       <path class="fil0" d="M21452 9569c0,-194 157,-351 350,-351 194,0 351,157 351,351 0,194 -157,351 -351,351 -193,0 -350,-157 -350,-351z"/>
      </g>
     </g>
     <path class="fil0" d="M21452 12246c0,0 7,416 -617,398 0,0 18,463 703,400 380,-81 614,-321 615,-790l-701 -8z"/>
     <path class="fil0" d="M21195 12671c122,-12 -69,279 -169,279 -101,-46 -199,-164 -192,-279 0,-100 82,-180 181,-180 99,0 58,192 180,180z"/>
    </g>
   </g>
  </g>
  <g id="_2124133891792">
   <g>
    <path class="fil1" d="M5346 12560l-1547 2615c-438,741 -1400,984 -2149,541 -749,-443 -1000,-1403 -561,-2145l2512 -4246c89,1306 750,2460 1745,3235z"/>
    <path class="fil1" d="M1089 13571c-439,742 -187,1702 561,2145 748,443 1711,200 2149,-541 439,-743 188,-1703 -560,-2146 -748,-442 -1711,-200 -2150,542z"/>
   </g>
   <g>
    <path class="fil2" d="M12990 14518c0,37 -2,74 -4,109 -3,37 -7,74 -12,110 -9,58 -20,115 -35,171 -5,23 -12,46 -19,68 -10,37 -23,74 -36,109 -10,24 -20,48 -31,71 -9,22 -19,42 -30,64 -17,37 -38,73 -60,109 -10,19 -23,38 -35,57 -65,100 -143,192 -231,274 -17,18 -33,33 -51,48 -74,64 -154,121 -241,173 -252,147 -527,218 -800,216 -30,0 -60,-1 -90,-2 -22,-2 -45,-3 -67,-6 -22,-3 -43,-5 -63,-8 -13,-2 -25,-3 -37,-5 -20,-3 -37,-7 -56,-11 -52,-10 -104,-24 -155,-40 -15,-4 -29,-8 -44,-15 -18,-5 -36,-12 -54,-19 -16,-6 -34,-12 -50,-20 -6,-2 -11,-5 -15,-7 -33,-14 -64,-29 -94,-45 -37,-18 -71,-38 -106,-60 -25,-15 -49,-32 -73,-49 -37,-26 -74,-55 -110,-85 -26,-22 -51,-45 -75,-69 -17,-15 -34,-33 -49,-49 -18,-18 -34,-37 -49,-56 -9,-10 -16,-19 -25,-29 -17,-21 -35,-45 -50,-68 -31,-41 -59,-83 -84,-127l-3396 -5813c586,-905 1929,-906 3063,-1001l3053 5226c143,245 211,513 211,779z"/>
    <path class="fil2" d="M12990 14518c0,37 -2,74 -4,109 -3,37 -7,74 -12,110 -9,58 -20,115 -35,171 -5,23 -12,46 -19,68 -10,37 -23,74 -36,109 -10,24 -20,48 -31,71 -9,22 -19,42 -30,64 -17,37 -38,73 -60,109 -10,19 -23,38 -35,57 -65,100 -143,192 -231,274 -17,18 -33,33 -51,48 -74,64 -154,121 -241,173 -252,147 -527,218 -800,216 -30,0 -60,-1 -90,-2 -22,-2 -45,-3 -67,-6 -22,-3 -43,-5 -63,-8 -13,-2 -25,-3 -37,-5 -20,-3 -37,-7 -56,-11 -52,-10 -104,-24 -155,-40 -15,-4 -29,-8 -44,-15 -18,-5 -36,-12 -54,-19 -16,-6 -34,-12 -50,-20 -6,-2 -11,-5 -15,-7 -33,-14 -64,-29 -94,-45 -37,-18 -71,-38 -106,-60 -25,-15 -49,-32 -73,-49 -37,-26 -74,-55 -110,-85 -26,-22 -51,-45 -75,-69 -17,-15 -34,-33 -49,-49 -18,-18 -34,-37 -49,-56 -9,-10 -16,-19 -25,-29 -17,-21 -35,-45 -50,-68 -31,-41 -59,-83 -84,-127 -435,-743 -179,-1703 572,-2142 751,-438 1712,-190 2148,554 143,245 211,513 211,779z"/>
   </g>
   <g>
    <g>
     <path class="fil3" d="M8479 6802c6,280 -61,567 -216,825l-1359 2301 -1558 2632c-995,-775 -1656,-1929 -1745,-3235l1952 -3300c15,-25 32,-47 48,-71 4,-6 9,-12 13,-18 23,-34 46,-66 72,-98 31,-38 64,-76 99,-111 24,-25 50,-48 76,-73 26,-23 53,-45 81,-67 21,-17 44,-34 68,-50 16,-11 32,-23 50,-34 24,-15 49,-30 73,-44 472,-263 1069,-273 1570,24 466,276 739,752 774,1251 2,23 2,44 2,68z"/>
     <path class="fil3" d="M5553 6024c-439,743 -188,1703 560,2146 748,443 1711,200 2150,-542 439,-743 188,-1703 -560,-2145 -749,-443 -1711,-201 -2150,541z"/>
    </g>
    <g>
     <path class="fil3" d="M9839 8708c-1984,-573 -2935,1220 -2935,1220l-1355 -2320c-128,-218 -196,-456 -210,-693 -4,-64 -4,-127 0,-190 19,-282 113,-556 275,-790 17,-25 33,-46 51,-70 16,-20 33,-42 50,-62 23,-26 47,-50 70,-77 24,-24 50,-47 76,-72 26,-23 53,-45 81,-67 20,-16 39,-31 61,-44 26,-19 53,-37 80,-54 13,-8 25,-16 37,-23 4,-3 10,-5 13,-7 749,-429 1703,-179 2135,560l1571 2689z"/>
     <path class="fil3" d="M8268 6020c434,745 178,1704 -573,2142 -751,439 -1712,191 -2147,-553 -434,-745 -178,-1704 572,-2142 751,-439 1713,-192 2148,553z"/>
    </g>
   </g>
  </g>
 </g>
</svg>
